<?xml version="1.0" encoding="UTF-8" standalone="no"?>
<!DOCTYPE svg PUBLIC "-//W3C//DTD SVG 1.1//EN" "http://www.w3.org/Graphics/SVG/1.1/DTD/svg11.dtd">
<svg width="100%" height="100%" viewBox="0 0 494 494" version="1.1" xmlns="http://www.w3.org/2000/svg" xmlns:xlink="http://www.w3.org/1999/xlink" xml:space="preserve" xmlns:serif="http://www.serif.com/" style="fill-rule:evenodd;clip-rule:evenodd;stroke-linejoin:round;stroke-miterlimit:2;">
    <g transform="matrix(1,0,0,1,-5.681,-3.003)">
        <path d="M252.209,3.003C116.055,3.003 5.681,113.378 5.681,249.531C5.681,385.685 116.056,496.059 252.209,496.059C388.363,496.059 498.738,385.685 498.738,249.531C498.738,113.378 388.364,3.003 252.209,3.003ZM407.887,405.21C387.659,425.438 364.112,441.315 337.898,452.403C310.773,463.876 281.942,469.694 252.209,469.694C222.476,469.694 193.646,463.876 166.521,452.403C140.307,441.315 116.759,425.437 96.531,405.21C76.303,384.981 60.425,361.435 49.338,335.221C37.865,308.095 32.047,279.265 32.047,249.532C32.047,219.799 37.864,190.969 49.338,163.844C60.425,137.63 76.304,114.082 96.531,93.855C116.759,73.627 140.307,57.749 166.521,46.662C193.646,35.188 222.477,29.371 252.209,29.371C281.942,29.371 310.772,35.188 337.898,46.662C364.112,57.749 387.66,73.628 407.887,93.855C428.115,114.083 443.993,137.63 455.081,163.844C466.554,190.969 472.372,219.799 472.372,249.532C472.372,279.265 466.555,308.095 455.081,335.221C443.994,361.435 428.115,384.981 407.887,405.21Z" style="fill:rgb(223,175,55);fill-rule:nonzero;"/>
    </g>
    <g transform="matrix(1,0,0,1,-5.681,-3.003)">
        <path d="M399.182,305.834L410.019,255.334C410.62,251.871 406.47,249.544 403.938,251.98C403.919,251.999 403.848,252.069 403.829,252.087L377.754,284.708L351.406,261.611C350.908,261.157 350.661,260.491 350.743,259.822L352.347,246.796C352.476,245.717 351.17,244.871 350.429,245.608C350.423,245.614 350.402,245.635 350.397,245.64L344.009,255.117C342.894,256.771 341.465,258.19 339.803,259.292L330.38,265.543C330.374,265.548 330.369,265.554 330.363,265.56C329.622,266.296 330.427,267.64 331.508,267.517L344.724,265.994C345.391,265.918 346.055,266.168 346.504,266.668L369.38,293.504L336.5,319.031C336.481,319.051 336.463,319.068 336.445,319.088C333.993,321.607 336.262,325.803 339.728,325.223L390.49,314.656L407.088,331.895C409.85,334.672 413.976,335.09 416.755,332.329C419.533,329.566 419.139,325.437 416.377,322.659L399.182,305.834Z" style="fill:rgb(42,80,111);fill-rule:nonzero;"/>
    </g>
    <g transform="matrix(1,0,0,1,-5.681,-3.003)">
        <path d="M293.303,364.935L300.488,343.542C301.608,340.022 300.159,336.39 296.639,335.27C293.118,334.151 289.838,336.279 288.718,339.798L282.141,361.509L235.187,374.448C232.03,375.455 231.891,379.938 235.032,380.995C235.055,381.003 235.146,381.032 235.169,381.04L273.811,388.633L265.975,420.731C265.812,421.345 265.363,421.841 264.768,422.064L253.175,426.399C252.216,426.761 252.078,428.222 253.017,428.521C253.024,428.523 253.051,428.531 253.058,428.534L263.766,429.747C265.635,429.959 267.444,430.536 269.09,431.445L278.423,436.602C278.43,436.604 278.437,436.607 278.444,436.609C279.382,436.908 280.155,435.648 279.582,434.798L272.55,424.409C272.195,423.885 272.115,423.221 272.337,422.627L284.813,391.804L320.488,408.179C320.511,408.186 320.535,408.193 320.558,408.2C323.732,409.153 326.254,405.427 324.258,402.781L293.303,364.935Z" style="fill:rgb(42,80,111);fill-rule:nonzero;"/>
    </g>
    <g transform="matrix(1,0,0,1,-5.681,-3.003)">
        <path d="M140.428,262.553C140.403,262.549 140.307,262.533 140.282,262.53L100.055,260.825L103.016,227.174C103.085,226.528 103.463,225.957 104.029,225.64L115.076,219.468C115.989,218.953 115.903,217.456 114.908,217.299C114.901,217.298 114.872,217.293 114.865,217.292L104.933,217.679C119.59,149.843 180.052,98.855 252.209,98.855C290.645,98.855 327.844,113.762 355.684,140.026L308.561,183.042C292.922,169.78 273.016,162.372 252.208,162.372C204.147,162.372 165.046,201.473 165.046,249.533C165.046,297.595 204.147,336.695 252.208,336.695C254.969,336.695 257.208,334.457 257.208,331.695C257.208,328.933 254.969,326.695 252.208,326.695C209.661,326.695 175.046,292.08 175.046,249.533C175.046,206.986 209.661,172.372 252.208,172.372C270.191,172.372 287.413,178.627 301.104,189.849L261.489,226.011C258.615,224.876 255.486,224.245 252.208,224.245C238.242,224.245 226.92,235.567 226.92,249.533C226.92,263.5 238.242,274.821 252.208,274.821C266.175,274.821 277.497,263.5 277.497,249.533C277.497,246.091 276.807,242.81 275.56,239.819L387.801,137.361C391.8,133.712 392.085,127.454 388.435,123.456C384.786,119.458 378.528,119.173 374.53,122.822L363.091,133.264C333.346,104.942 293.445,88.855 252.209,88.855C175.218,88.855 110.717,143.292 95.134,215.692L87.983,213.056C87.976,213.055 87.968,213.054 87.961,213.053C86.966,212.896 86.38,214.287 87.09,215.058L95.802,224.471C96.242,224.948 96.424,225.606 96.292,226.241L88.445,259.321L49.86,248.28C49.835,248.276 49.81,248.272 49.785,248.269C46.43,247.796 44.456,251.952 46.882,254.317L84.015,287.788L80.057,310.517C79.469,314.248 81.495,317.696 85.225,318.284C88.955,318.872 91.943,316.215 92.532,312.483L95.826,289.524L141.283,269.193C144.319,267.688 143.766,263.135 140.428,262.553Z" style="fill:rgb(42,80,111);fill-rule:nonzero;"/>
    </g>
    <g transform="matrix(1,0,0,1,-5.681,-3.003)">
        <path d="M113.494,313.633L110.817,329.877C137.524,375.52 186.112,406.996 242.406,409.491L245.584,399.603C187.117,398.062 137.139,363.202 113.494,313.633Z" style="fill:rgb(42,80,111);fill-rule:nonzero;"/>
    </g>
</svg>
